<svg width="49" height="75" viewBox="0 0 49 75" fill="none" xmlns="http://www.w3.org/2000/svg">
<g filter="url(#filter0_f)">
<path d="M45 51.0574C45 43.4478 40.6568 36.9752 33.8814 33.7389C38.3114 31.2898 41.5254 26.2167 41.5254 21.0561C41.5254 11.4347 34.0551 4 24.5 4C15.0318 4 7.47458 11.1723 7.47458 20.7937C7.47458 26.2167 10.6017 30.8525 15.0318 33.7389C8.25636 36.4504 4 43.7976 4 51.0574C4 62.3407 13.6419 71 24.5869 71C35.5318 71 45 62.2533 45 51.0574ZM35.0975 20.5313C35.0975 26.3916 30.3199 31.0274 24.5869 31.0274C18.9407 31.0274 13.9025 26.3042 13.9025 20.5313C13.9025 14.4961 18.6801 9.86031 24.6737 9.86031C30.4936 9.86031 35.0975 14.7585 35.0975 20.5313ZM38.572 51.0574C38.572 58.7546 32.4047 65.1397 24.6737 65.1397C16.5085 65.1397 10.428 59.017 10.428 50.795C10.428 43.2728 17.0297 37.0627 24.4131 37.0627C32.1441 37.0627 38.572 43.1854 38.572 51.0574Z" fill="#DDDDDD"/>
</g>
<defs>
<filter id="filter0_f" x="0" y="0" width="49" height="75" filterUnits="userSpaceOnUse" color-interpolation-filters="sRGB">
<feFlood flood-opacity="0" result="BackgroundImageFix"/>
<feBlend mode="normal" in="SourceGraphic" in2="BackgroundImageFix" result="shape"/>
<feGaussianBlur stdDeviation="2" result="effect1_foregroundBlur"/>
</filter>
</defs>
</svg>
