<svg width="79" height="67" viewBox="0 0 79 67" fill="none" xmlns="http://www.w3.org/2000/svg">
<g filter="url(#filter0_i)">
<path d="M17.9292 67V1.15671H0V7.11819H11.3284V67H17.9292Z" fill="#404040"/>
<path d="M79 20.0199C79 17.4396 78.3756 14.8592 77.3944 12.5458C74.094 4.7158 67.0472 0 58.484 0C55.6296 0 52.7751 0.533863 50.0991 1.60159C41.0899 5.07171 37.2543 12.9017 37.2543 22.2444V22.4223H43.8551C43.8551 13.5246 48.5827 5.96148 58.1272 5.96148C65.7984 5.96148 72.3992 12.1899 72.3992 19.9309C72.3992 27.761 65.0848 33.8114 59.9112 38.7942L36.7191 61.0385V67H78.6432V61.0385H45.6391L66.8688 40.8406C73.0236 35.0571 79 29.0066 79 20.0199Z" fill="#404040"/>
</g>
<defs>
<filter id="filter0_i" x="0" y="0" width="79" height="71" filterUnits="userSpaceOnUse" color-interpolation-filters="sRGB">
<feFlood flood-opacity="0" result="BackgroundImageFix"/>
<feBlend mode="normal" in="SourceGraphic" in2="BackgroundImageFix" result="shape"/>
<feColorMatrix in="SourceAlpha" type="matrix" values="0 0 0 0 0 0 0 0 0 0 0 0 0 0 0 0 0 0 127 0" result="hardAlpha"/>
<feOffset dy="4"/>
<feGaussianBlur stdDeviation="2"/>
<feComposite in2="hardAlpha" operator="arithmetic" k2="-1" k3="1"/>
<feColorMatrix type="matrix" values="0 0 0 0 0 0 0 0 0 0 0 0 0 0 0 0 0 0 0.5 0"/>
<feBlend mode="normal" in2="shape" result="effect1_innerShadow"/>
</filter>
</defs>
</svg>
