<svg width="85" height="75" viewBox="0 0 85 75" fill="none" xmlns="http://www.w3.org/2000/svg">
<g filter="url(#filter0_f)">
<path d="M21.8272 69.8629V5.13708H4V10.9974H15.264V69.8629H21.8272Z" fill="#DDDDDD"/>
<path d="M81 46.2467V27.3538C81 23.3303 80.3791 19.0444 78.5166 15.4582C74.7915 8.19843 67.164 4 59.0042 4C50.8445 4 43.217 8.19843 39.4919 15.4582C37.6293 19.0444 37.0085 23.3303 37.0085 27.3538V46.2467C37.0085 51.0574 37.8067 56.6554 40.2901 60.9413C44.2813 67.5888 51.288 71 59.0042 71C66.7205 71 73.7272 67.5888 77.7184 60.9413C80.2018 56.6554 81 51.0574 81 46.2467ZM74.4368 45.2846C74.4368 49.2206 73.9933 54.906 71.9534 58.2298C69.1152 62.8655 64.4145 65.1397 59.0042 65.1397C53.594 65.1397 48.8933 62.8655 46.0551 58.2298C44.0152 54.906 43.5717 49.2206 43.5717 45.2846V28.8407C43.5717 25.0796 44.37 19.7441 46.4099 16.5078C48.982 12.4843 54.2148 9.86031 59.0042 9.86031C63.7936 9.86031 69.0265 12.4843 71.5986 16.5078C73.6385 19.7441 74.4368 25.0796 74.4368 28.8407V45.2846Z" fill="#DDDDDD"/>
</g>
<defs>
<filter id="filter0_f" x="0" y="0" width="85" height="75" filterUnits="userSpaceOnUse" color-interpolation-filters="sRGB">
<feFlood flood-opacity="0" result="BackgroundImageFix"/>
<feBlend mode="normal" in="SourceGraphic" in2="BackgroundImageFix" result="shape"/>
<feGaussianBlur stdDeviation="2" result="effect1_foregroundBlur"/>
</filter>
</defs>
</svg>
