<svg width="46" height="67" viewBox="0 0 46 67" fill="none" xmlns="http://www.w3.org/2000/svg">
<g filter="url(#filter0_i)">
<path d="M46.0001 23.4322C46.0001 10.246 36.7274 0 23.0001 0C9.7274 0 0.00012207 10.246 0.00012207 23.0758C0.00012207 35.7274 9.54558 45.9734 22.6365 45.9734C24.8183 45.9734 27.0001 45.5279 28.9092 44.5479L29.091 44.637L13.5456 67H21.1819L37.9092 42.766C42.091 36.7075 46.0001 31.0053 46.0001 23.4322ZM39.2728 22.8085C39.2728 31.8963 32.7274 40.004 23.0001 40.004C13.3638 40.004 6.72739 32.0745 6.72739 22.9867C6.72739 13.8098 13.2729 5.96941 23.0001 5.96941C32.4547 5.96941 39.2728 13.8098 39.2728 22.8085Z" fill="#404040"/>
</g>
<defs>
<filter id="filter0_i" x="0.00012207" y="0" width="46" height="71" filterUnits="userSpaceOnUse" color-interpolation-filters="sRGB">
<feFlood flood-opacity="0" result="BackgroundImageFix"/>
<feBlend mode="normal" in="SourceGraphic" in2="BackgroundImageFix" result="shape"/>
<feColorMatrix in="SourceAlpha" type="matrix" values="0 0 0 0 0 0 0 0 0 0 0 0 0 0 0 0 0 0 127 0" result="hardAlpha"/>
<feOffset dy="4"/>
<feGaussianBlur stdDeviation="2"/>
<feComposite in2="hardAlpha" operator="arithmetic" k2="-1" k3="1"/>
<feColorMatrix type="matrix" values="0 0 0 0 0 0 0 0 0 0 0 0 0 0 0 0 0 0 0.5 0"/>
<feBlend mode="normal" in2="shape" result="effect1_innerShadow"/>
</filter>
</defs>
</svg>
