<svg width="76" height="67" viewBox="0 0 76 67" fill="none" xmlns="http://www.w3.org/2000/svg">
<g filter="url(#filter0_i)">
<path d="M17.5957 65.8629V1.13708H0V6.99739H11.1177V65.8629H17.5957Z" fill="#404040"/>
<path d="M76 42.2467V23.3538C76 19.3303 75.3872 15.0444 73.5489 11.4582C69.8721 4.19843 62.3436 0 54.2899 0C46.2362 0 38.7077 4.19843 35.031 11.4582C33.1926 15.0444 32.5798 19.3303 32.5798 23.3538V42.2467C32.5798 47.0574 33.3677 52.6554 35.8188 56.9413C39.7582 63.5888 46.6739 67 54.2899 67C61.9059 67 68.8217 63.5888 72.761 56.9413C75.2121 52.6554 76 47.0574 76 42.2467ZM69.522 41.2846C69.522 45.2206 69.0843 50.906 67.0708 54.2298C64.2695 58.8655 59.6299 61.1397 54.2899 61.1397C48.9499 61.1397 44.3103 58.8655 41.509 54.2298C39.4955 50.906 39.0578 45.2206 39.0578 41.2846V24.8407C39.0578 21.0796 39.8457 15.7441 41.8591 12.5078C44.3978 8.48433 49.5627 5.86031 54.2899 5.86031C59.0171 5.86031 64.182 8.48433 66.7207 12.5078C68.7341 15.7441 69.522 21.0796 69.522 24.8407V41.2846Z" fill="#404040"/>
</g>
<defs>
<filter id="filter0_i" x="0" y="0" width="76" height="71" filterUnits="userSpaceOnUse" color-interpolation-filters="sRGB">
<feFlood flood-opacity="0" result="BackgroundImageFix"/>
<feBlend mode="normal" in="SourceGraphic" in2="BackgroundImageFix" result="shape"/>
<feColorMatrix in="SourceAlpha" type="matrix" values="0 0 0 0 0 0 0 0 0 0 0 0 0 0 0 0 0 0 127 0" result="hardAlpha"/>
<feOffset dy="4"/>
<feGaussianBlur stdDeviation="2"/>
<feComposite in2="hardAlpha" operator="arithmetic" k2="-1" k3="1"/>
<feColorMatrix type="matrix" values="0 0 0 0 0 0 0 0 0 0 0 0 0 0 0 0 0 0 0.5 0"/>
<feBlend mode="normal" in2="shape" result="effect1_innerShadow"/>
</filter>
</defs>
</svg>
