<svg width="14" height="12" viewBox="0 0 14 12" fill="none" xmlns="http://www.w3.org/2000/svg">
<path d="M12.9084 1.16916C12.1712 0.415242 11.1852 2.73287e-05 10.1318 2.73287e-05C9.09464 2.73287e-05 8.11948 0.403976 7.3859 1.13758L7.0073 1.51643L6.62834 1.13747C5.89482 0.403949 4.91985 0 3.883 0C2.84583 0 1.87069 0.403949 1.13723 1.13747C0.403867 1.8708 0 2.84585 0 3.88303C0 4.92021 0.403867 5.89526 1.13723 6.62859L5.99025 11.4816C6.2706 11.7619 6.63876 11.902 7.007 11.902C7.37516 11.902 7.74339 11.7619 8.02367 11.4816L12.8454 6.66028C14.3599 5.14579 14.3881 2.68253 12.9084 1.16916ZM12.337 6.15191L7.51529 10.9733C7.23499 11.2536 6.7789 11.2536 6.49862 10.9733L1.64557 6.12019C1.048 5.52264 0.718922 4.72814 0.718922 3.883C0.718922 3.03786 1.048 2.24336 1.64557 1.64579C2.24325 1.04809 3.03786 0.718922 3.883 0.718922C4.72782 0.718922 5.52226 1.04809 6.11997 1.64579L6.49912 2.02494L5.91853 2.60597C5.7782 2.74641 5.77831 2.97399 5.91872 3.11432C5.98891 3.18445 6.08084 3.21951 6.1728 3.21951C6.26486 3.21951 6.35687 3.18434 6.42707 3.11412L7.89428 1.64577C8.49198 1.04806 9.28656 0.718894 10.1317 0.718894C10.99 0.718894 11.7935 1.0573 12.3943 1.67174C13.6001 2.90486 13.5743 4.91463 12.337 6.15191Z" fill="#404040"/>
</svg>
