<svg width="11" height="11" viewBox="0 0 11 11" fill="none" xmlns="http://www.w3.org/2000/svg">
<path d="M10.9962 5.49706L5.98315 0V3.29282H5.4008C3.95824 3.29282 2.60196 3.8546 1.58187 4.87469C0.561783 5.89478 0 7.25106 0 8.6937V11L0.962097 9.94584C2.24906 8.53584 4.0759 7.72019 5.98315 7.70164V10.9942L10.9962 5.49706ZM0.644615 9.34285V8.6937C0.644615 7.42327 1.13934 6.22879 2.03766 5.33047C2.93597 4.43216 4.13037 3.93743 5.4008 3.93743H6.62768V1.66344L10.1239 5.49706L6.62768 9.33076V7.05678H6.04936C4.01472 7.05678 2.05814 7.8872 0.644615 9.34285Z" fill="#404040"/>
</svg>
