<svg width="50" height="50" viewBox="0 0 50 50" fill="none" xmlns="http://www.w3.org/2000/svg">
<path d="M46.8733 43.7503H3.12488C1.40203 43.7503 0 42.3483 0 40.6254V11.4598C0 9.73699 1.40203 8.33496 3.12488 8.33496H11.4579C12.0329 8.33496 12.4995 8.80161 12.4995 9.37659C12.4995 9.95157 12.0329 10.4182 11.4579 10.4182H3.12488C2.54991 10.4182 2.08326 10.8849 2.08326 11.4598V40.6254C2.08326 41.2004 2.54991 41.6671 3.12488 41.6671H46.8733C47.4482 41.6671 47.9149 41.2004 47.9149 40.6254V11.4598C47.9149 10.8849 47.4482 10.4182 46.8733 10.4182H44.79C44.215 10.4182 43.7484 9.95157 43.7484 9.37659C43.7484 8.80161 44.215 8.33496 44.79 8.33496H46.8733C48.5961 8.33496 49.9982 9.73699 49.9982 11.4598V40.6254C49.9982 42.3483 48.5961 43.7503 46.8733 43.7503Z" fill="#404040"/>
<path d="M32.2905 50H17.7077C17.2869 50 16.9057 49.7459 16.7453 49.3563C16.5828 48.9667 16.6723 48.5188 16.9702 48.2209C19.7118 45.4794 19.7472 42.8253 19.7472 42.7128C19.7493 42.1399 20.216 41.667 20.7909 41.667H29.1656C29.7385 41.667 30.2052 42.1295 30.2073 42.7024C30.2093 42.8336 30.2906 45.4856 33.028 48.2209C33.3259 48.5188 33.4155 48.9667 33.253 49.3563C33.0926 49.7459 32.7113 50 32.2905 50ZM19.9389 47.9168H30.0573C28.8906 46.2481 28.4282 44.7148 28.2448 43.7503H21.7242C21.5472 44.719 21.0972 46.2502 19.9389 47.9168ZM30.2073 42.7086H30.2281H30.2073Z" fill="#404040"/>
<path d="M48.9565 37.5005H1.04163C0.466649 37.5005 0 37.0338 0 36.4589C0 35.8839 0.466649 35.4172 1.04163 35.4172H48.9565C49.5315 35.4172 49.9982 35.8839 49.9982 36.4589C49.9982 37.0338 49.5315 37.5005 48.9565 37.5005Z" fill="#404040"/>
<path d="M26.5782 24.6635C26.3116 24.6635 26.0449 24.5614 25.8407 24.3593L18.3493 16.8658C17.9577 16.4742 17.941 15.843 18.3119 15.4326L24.4491 8.61823C28.8094 3.583 35.7258 0.112293 41.6464 0.0018803C41.9297 -0.016869 42.2026 0.106043 42.4026 0.306036C42.6026 0.506028 42.713 0.778935 42.7068 1.06226C42.5964 6.98287 39.1257 13.8993 34.0738 18.272L27.274 24.3968C27.0782 24.576 26.8282 24.6635 26.5782 24.6635ZM20.5222 16.093L26.6178 22.1886L32.6967 16.7117C37.0216 12.9681 40.0756 7.24953 40.5589 2.14972C35.4591 2.63303 29.7427 5.68709 26.0116 9.99734L20.5222 16.093Z" fill="#404040"/>
<path d="M29.3822 29.6048C29.2885 29.6048 29.1926 29.5923 29.0989 29.5652C28.7364 29.4632 28.4572 29.1736 28.3677 28.8048L26.8948 22.6592C26.7615 22.1009 27.1073 21.5384 27.6656 21.403C28.2322 21.2718 28.7885 21.6155 28.9218 22.1738L29.8989 26.2549C31.7092 23.4238 32.0696 19.801 32.1071 17.6823C32.1175 17.1074 32.5404 16.6178 33.1675 16.6595C33.7425 16.6678 34.2008 17.1449 34.1904 17.7178C34.1029 22.6467 32.6571 26.7591 30.1176 29.2986C29.9197 29.4986 29.653 29.6048 29.3822 29.6048Z" fill="#404040"/>
<path d="M20.2929 15.841C20.2117 15.841 20.1304 15.8326 20.0492 15.8118L13.9036 14.3389C13.5369 14.2514 13.2453 13.9744 13.1432 13.6098C13.0411 13.2473 13.1432 12.8577 13.4078 12.5911C15.9473 10.0516 20.0596 8.60581 24.9886 8.51831C25.5907 8.52248 26.0386 8.96621 26.049 9.54119C26.0594 10.1162 25.6011 10.5912 25.0261 10.6016C22.9053 10.6391 19.2846 10.9995 16.4535 12.8098L20.5346 13.7869C21.0929 13.9202 21.4387 14.4827 21.3054 15.0431C21.1887 15.5201 20.7638 15.841 20.2929 15.841Z" fill="#404040"/>
<path d="M12.4995 31.2508C12.2266 31.2508 11.962 31.1445 11.762 30.9466C11.4912 30.6758 11.3912 30.2779 11.5016 29.9112C11.8453 28.7613 13.6328 22.9573 15.0327 21.5574C16.7181 19.8699 19.4617 19.8679 21.1533 21.5574C22.8408 23.2448 22.8408 25.9905 21.1533 27.678C19.7555 29.0758 13.9494 30.8654 12.7995 31.2091C12.6995 31.2362 12.5995 31.2508 12.4995 31.2508ZM18.093 22.374C17.518 22.374 16.9431 22.5928 16.5056 23.0302C15.9139 23.6219 14.8973 26.2301 14.1015 28.6071C16.4785 27.8113 19.0888 26.7926 19.6784 26.203C20.5533 25.3281 20.5533 23.9031 19.6784 23.0302C19.2409 22.5928 18.6659 22.374 18.093 22.374Z" fill="#404040"/>
</svg>
