<svg width="53" height="50" viewBox="0 0 53 50" fill="none" xmlns="http://www.w3.org/2000/svg">
<path d="M36.1897 28.6921H8.71758L32.5072 13.5663C32.5764 13.5223 32.6363 13.4651 32.6834 13.398C32.7305 13.3308 32.7639 13.2551 32.7817 13.175C32.7996 13.0949 32.8014 13.0122 32.7873 12.9314C32.7731 12.8506 32.7431 12.7734 32.6991 12.7042L30.3421 8.9972C29.8046 8.15382 28.9545 7.55809 27.9782 7.34073C27.002 7.12338 25.9795 7.30214 25.1349 7.8378L21.7873 9.96625L22.0525 8.69747C22.157 8.23875 22.1699 7.76389 22.0903 7.30019C22.0108 6.83648 21.8404 6.39306 21.5889 5.99541C21.3375 5.59775 21.01 5.2537 20.6251 4.98302C20.2403 4.71234 19.8058 4.52036 19.3466 4.41811C18.8874 4.31587 18.4124 4.30538 17.9491 4.38723C17.4858 4.46909 17.0433 4.64169 16.6469 4.89511C16.2505 5.14852 15.9081 5.47777 15.6393 5.86393C15.3705 6.25009 15.1807 6.68554 15.0808 7.14528L13.3417 14.9566L7.51853 13.6604C6.65012 13.4669 5.74074 13.6044 4.96844 14.0462C4.19614 14.4879 3.61654 15.202 3.34311 16.0487C3.06969 16.8954 3.12213 17.8136 3.49018 18.6236C3.85822 19.4336 4.51536 20.0771 5.33294 20.428L1.7467 22.7083C0.90334 23.2459 0.307636 24.096 0.0902805 25.0722C-0.127075 26.0483 0.0516694 27.0709 0.587299 27.9154L2.9443 31.6225C2.98829 31.6917 3.04548 31.7516 3.11262 31.7987C3.17975 31.8458 3.2555 31.8793 3.33556 31.8971C3.41561 31.9149 3.49839 31.9168 3.57917 31.9026C3.65995 31.8885 3.73715 31.8585 3.80636 31.8145L6.00027 30.4199V46.2278C6.0014 47.2279 6.39921 48.1867 7.10642 48.8939C7.81363 49.601 8.77248 49.9988 9.7726 49.9999H33.0422C34.0423 49.9987 35.0011 49.601 35.7083 48.8938C36.4154 48.1866 36.8132 47.2278 36.8144 46.2278V29.3165C36.8144 29.2345 36.7982 29.1533 36.7668 29.0775C36.7354 29.0017 36.6894 28.9329 36.6314 28.8749C36.5734 28.8169 36.5045 28.7709 36.4287 28.7395C36.3529 28.7082 36.2717 28.692 36.1897 28.6921ZM25.805 8.89188C26.2078 8.63431 26.6759 8.4973 27.154 8.49702C27.3401 8.49711 27.5256 8.5176 27.7072 8.55811C28.031 8.62931 28.3374 8.764 28.6088 8.9544C28.8801 9.1448 29.111 9.38712 29.2881 9.66735L31.3101 12.8474L21.475 19.1009L18.0992 13.7916L25.805 8.89188ZM16.2998 7.41682C16.4347 6.81584 16.8028 6.29307 17.3232 5.96351C17.8435 5.63395 18.4735 5.52459 19.0745 5.6595C19.6754 5.79441 20.1982 6.16253 20.5278 6.68288C20.8573 7.20322 20.9667 7.83318 20.8318 8.43416L20.3191 10.8866L14.7337 14.4511L16.2998 7.41682ZM17.045 14.4617L20.4208 19.771L14.7216 23.3945L11.3459 18.0852L17.045 14.4617ZM4.78269 18.3924C4.53622 18.0048 4.41023 17.5528 4.42065 17.0936C4.43107 16.6344 4.57742 16.1886 4.84121 15.8126C5.105 15.4366 5.47438 15.1472 5.90262 14.9811C6.33087 14.815 6.79875 14.7796 7.2471 14.8795L12.2932 16.0028L6.69165 19.5143L6.23767 19.4131C5.93971 19.3476 5.6577 19.2237 5.40795 19.0485C5.15821 18.8733 4.94569 18.6503 4.78269 18.3924ZM3.66336 30.4255L1.64148 27.2454C1.28319 26.6805 1.16361 25.9965 1.30896 25.3435C1.45432 24.6906 1.85275 24.1219 2.41684 23.7623L10.2919 18.7553L13.6676 24.0646L3.66336 30.4255ZM15.7729 48.751H9.7726C9.10364 48.7502 8.4623 48.4841 7.98927 48.0111C7.51624 47.5381 7.25016 46.8967 7.24939 46.2278V29.941H15.7732L15.7729 48.751ZM23.7101 48.751H17.0218V29.941H23.7101V48.751ZM35.5652 46.2278C35.5645 46.8967 35.2984 47.538 34.8254 48.011C34.3525 48.484 33.7112 48.7501 33.0422 48.751H24.959V29.941H35.5652V46.2278Z" fill="#404040"/>
<path d="M43.1722 23.0196L43.4709 21.2779C43.4905 21.1631 43.4777 21.0451 43.4338 20.9372C43.3899 20.8293 43.3167 20.7358 43.2225 20.6673C43.1283 20.5989 43.0168 20.5581 42.9006 20.5497C42.7844 20.5412 42.6682 20.5655 42.5651 20.6196L41.001 21.4418L39.4369 20.6196C39.3337 20.5654 39.2175 20.5411 39.1013 20.5495C38.9851 20.5579 38.8735 20.5986 38.7792 20.6671C38.685 20.7356 38.6117 20.8291 38.5678 20.937C38.5239 21.045 38.5111 21.163 38.5308 21.2779L38.8295 23.0196L37.5641 24.2529C37.4807 24.3342 37.4216 24.4373 37.3937 24.5504C37.3658 24.6635 37.37 24.7822 37.406 24.8931C37.442 25.0039 37.5083 25.1024 37.5974 25.1775C37.6865 25.2527 37.7949 25.3013 37.9102 25.3181L39.6587 25.5722L40.4407 27.1568C40.4923 27.2613 40.572 27.3493 40.671 27.4109C40.77 27.4724 40.8842 27.505 41.0007 27.505C41.1173 27.505 41.2315 27.4724 41.3305 27.4109C41.4294 27.3493 41.5092 27.2613 41.5608 27.1568L42.3427 25.5722L44.0911 25.3181C44.2065 25.3013 44.3148 25.2527 44.4039 25.1775C44.493 25.1024 44.5593 25.0039 44.5953 24.8931C44.6313 24.7822 44.6356 24.6635 44.6076 24.5504C44.5797 24.4373 44.5207 24.3342 44.4372 24.2529L43.1722 23.0196ZM41.8382 24.383C41.738 24.3975 41.6429 24.4362 41.561 24.4957C41.479 24.5552 41.4128 24.6338 41.368 24.7245L41.0007 25.4689L40.6333 24.7245C40.5885 24.6338 40.5223 24.5553 40.4404 24.4957C40.3585 24.4362 40.2634 24.3975 40.1632 24.383L39.3417 24.2636L39.9361 23.6842C40.0086 23.6135 40.0629 23.5263 40.0942 23.43C40.1255 23.3337 40.1329 23.2313 40.1158 23.1315L39.9754 22.3132L40.7101 22.6994C40.7997 22.7466 40.8995 22.7713 41.0007 22.7713C41.102 22.7713 41.2017 22.7466 41.2913 22.6994L42.026 22.3132L41.8857 23.1315C41.8686 23.2313 41.8759 23.3337 41.9072 23.43C41.9385 23.5263 41.9927 23.6135 42.0652 23.6842L42.6597 24.2636L41.8382 24.383Z" fill="#404040"/>
<path d="M50.3543 14.4154L48.6371 13.9981L48.0073 12.3471C47.9658 12.2382 47.8946 12.1431 47.8019 12.0726C47.7092 12.002 47.5985 11.9588 47.4825 11.9478C47.3665 11.9369 47.2497 11.9586 47.1454 12.0106C47.0411 12.0625 46.9534 12.1426 46.8922 12.2418L45.9648 13.746L44.2 13.8348C44.0836 13.8407 43.9712 13.8789 43.8755 13.9453C43.7798 14.0117 43.7045 14.1036 43.6583 14.2105C43.612 14.3175 43.5966 14.4352 43.6137 14.5505C43.6309 14.6657 43.68 14.7738 43.7554 14.8626L44.8993 16.2095L44.4385 17.9153C44.4081 18.0278 44.4098 18.1465 44.4434 18.2581C44.477 18.3697 44.5411 18.4696 44.6285 18.5467C44.7159 18.6237 44.8231 18.6748 44.938 18.6941C45.053 18.7133 45.171 18.7001 45.2787 18.6558L46.9127 17.9841L48.3934 18.9496C48.491 19.0132 48.6044 19.0483 48.7209 19.0509C48.8374 19.0534 48.9523 19.0233 49.0526 18.964C49.1528 18.9047 49.2345 18.8185 49.2884 18.7152C49.3422 18.6119 49.3661 18.4955 49.3573 18.3794L49.2235 16.6174L50.5987 15.5082C50.6893 15.4351 50.7577 15.3381 50.7962 15.2281C50.8346 15.1181 50.8415 14.9996 50.816 14.8859C50.7906 14.7722 50.7339 14.6679 50.6523 14.5848C50.5707 14.5016 50.4675 14.443 50.3543 14.4154ZM48.1837 15.8517C48.1049 15.9152 48.0427 15.997 48.0026 16.0899C47.9624 16.1828 47.9454 16.2841 47.9531 16.3851L48.0155 17.2128L47.3202 16.7591C47.2354 16.7038 47.1384 16.6699 47.0376 16.6604C46.9369 16.6509 46.8353 16.6661 46.7416 16.7046L45.974 17.0201L46.1904 16.2188C46.2169 16.121 46.2191 16.0183 46.197 15.9195C46.1749 15.8207 46.1291 15.7288 46.0636 15.6516L45.5262 15.019L46.3553 14.9773C46.4564 14.9723 46.5548 14.9427 46.642 14.8912C46.7291 14.8397 46.8024 14.7677 46.8556 14.6816L47.2911 13.975L47.5869 14.7506C47.623 14.8451 47.6816 14.9295 47.7575 14.9964C47.8335 15.0633 47.9245 15.1108 48.0229 15.1347L48.8296 15.3308L48.1837 15.8517Z" fill="#404040"/>
<path d="M41.1706 4.26429L40.7096 5.97009C40.6792 6.08258 40.6808 6.20134 40.7144 6.31294C40.7479 6.42454 40.8121 6.52452 40.8995 6.60158C40.9869 6.67863 41.0941 6.72969 41.2091 6.74897C41.324 6.76826 41.442 6.755 41.5498 6.71069L43.1838 6.03888L44.6638 7.0046C44.7614 7.06827 44.8749 7.10336 44.9914 7.1059C45.1079 7.10845 45.2228 7.07835 45.323 7.01901C45.4233 6.95968 45.505 6.87346 45.5588 6.77013C45.6127 6.66679 45.6365 6.55045 45.6277 6.43427L45.494 4.67227L46.8694 3.56303C46.9601 3.4899 47.0285 3.39286 47.0669 3.28288C47.1053 3.17291 47.1122 3.05438 47.0868 2.9407C47.0614 2.82702 47.0046 2.72272 46.9231 2.63958C46.8415 2.55644 46.7382 2.49778 46.6251 2.47024L44.9078 2.053L44.2781 0.40194C44.2366 0.293057 44.1655 0.197966 44.0727 0.127421C43.98 0.0568764 43.8693 0.0136936 43.7533 0.00275662C43.6373 -0.00818032 43.5205 0.013565 43.4162 0.0655332C43.3119 0.117501 43.2242 0.197619 43.1631 0.296824L42.2358 1.80093L40.4709 1.8896C40.3545 1.89544 40.2421 1.93372 40.1463 2.00011C40.0506 2.0665 39.9753 2.15836 39.929 2.2653C39.8828 2.37224 39.8673 2.48999 39.8845 2.60524C39.9017 2.72048 39.9507 2.82863 40.0261 2.91745L41.1706 4.26429ZM42.6267 3.03162C42.7278 3.02654 42.8261 2.99695 42.9133 2.94541C43.0004 2.89386 43.0737 2.8219 43.1269 2.73573L43.5625 2.02916L43.8583 2.80473C43.8944 2.89932 43.9529 2.98373 44.0289 3.05066C44.1048 3.1176 44.1959 3.16507 44.2943 3.18898L45.1009 3.38496L44.4548 3.90596C44.3759 3.9695 44.3138 4.05125 44.2736 4.14417C44.2334 4.23709 44.2164 4.33839 44.224 4.43935L44.2865 5.26716L43.5911 4.8135C43.5063 4.75819 43.4094 4.72433 43.3086 4.71483C43.2078 4.70533 43.1062 4.72047 43.0126 4.75896L42.2449 5.07452L42.4614 4.27314C42.4878 4.17539 42.4901 4.07268 42.468 3.97387C42.4459 3.87506 42.4001 3.7831 42.3345 3.70592L41.7972 3.07315L42.6267 3.03162Z" fill="#404040"/>
<path d="M29.8415 23.1094C28.4317 23.9966 27.7429 25.0717 27.7143 25.1171C27.6256 25.257 27.5961 25.4263 27.6323 25.5879C27.6684 25.7496 27.7673 25.8902 27.9072 25.9789C28.0471 26.0676 28.2164 26.0971 28.3781 26.0609C28.5397 26.0247 28.6803 25.9259 28.769 25.786C28.8627 25.6403 31.122 22.225 36.0397 23.4415C36.1999 23.4795 36.3686 23.4528 36.5091 23.3672C36.6497 23.2815 36.7507 23.1438 36.7903 22.984C36.8298 22.8242 36.8047 22.6552 36.7203 22.5139C36.636 22.3726 36.4992 22.2702 36.3398 22.2292C33.3141 21.4806 31.1359 22.2946 29.8415 23.1094Z" fill="#404040"/>
<path d="M41.6909 16.4963C41.8439 16.5598 42.0158 16.5599 42.1688 16.4966C42.3219 16.4334 42.4436 16.3119 42.507 16.1589C42.5705 16.0059 42.5706 15.834 42.5074 15.6809C42.4441 15.5279 42.3226 15.4062 42.1696 15.3427C37.7241 13.4978 34.4931 14.8794 32.5655 16.3635C31.2867 17.358 30.2282 18.6071 29.457 20.0318C29.4205 20.1052 29.3989 20.1851 29.3933 20.2669C29.3877 20.3488 29.3983 20.4309 29.4244 20.5086C29.4506 20.5863 29.4918 20.6581 29.5457 20.7199C29.5996 20.7817 29.6651 20.8323 29.7386 20.8688C29.812 20.9053 29.8919 20.9269 29.9738 20.9325C30.0556 20.9381 30.1377 20.9275 30.2154 20.9014C30.2931 20.8752 30.365 20.834 30.4268 20.7801C30.4886 20.7262 30.5391 20.6607 30.5756 20.5872C31.2638 19.3335 32.2 18.2331 33.3274 17.3531C35.7511 15.4875 38.565 15.199 41.6909 16.4963Z" fill="#404040"/>
<path d="M34.674 11.8702C34.623 12.0278 34.6367 12.1991 34.7121 12.3466C34.7875 12.494 34.9184 12.6055 35.0759 12.6565C35.9356 12.9098 36.8272 13.0386 37.7234 13.0391C38.7677 13.0391 39.9738 12.8506 41.0554 12.2095C42.4708 11.3708 43.3783 9.942 43.7545 7.96321C43.7701 7.88251 43.7697 7.79953 43.7531 7.71901C43.7366 7.63849 43.7044 7.56202 43.6583 7.49399C43.6121 7.42596 43.553 7.3677 43.4844 7.32256C43.4157 7.27742 43.3387 7.24629 43.258 7.23095C43.1772 7.2156 43.0942 7.21635 43.0138 7.23315C42.9333 7.24995 42.857 7.28247 42.7891 7.32884C42.7213 7.37521 42.6632 7.43453 42.6183 7.50338C42.5734 7.57223 42.5426 7.64927 42.5275 7.73008C42.2218 9.33919 41.514 10.4839 40.4241 11.1323C38.3508 12.3659 35.5047 11.4827 35.4596 11.4684C35.3022 11.4176 35.131 11.4314 34.9837 11.5067C34.8364 11.5821 34.725 11.7128 34.674 11.8702Z" fill="#404040"/>
<path d="M26.4196 28.0049C26.642 28.0049 26.8595 27.939 27.0444 27.8154C27.2294 27.6918 27.3736 27.5162 27.4587 27.3107C27.5438 27.1052 27.5661 26.8791 27.5227 26.6609C27.4793 26.4427 27.3722 26.2423 27.215 26.0851C27.0577 25.9278 26.8573 25.8206 26.6391 25.7772C26.421 25.7338 26.1948 25.7561 25.9893 25.8412C25.7838 25.9263 25.6082 26.0705 25.4846 26.2554C25.361 26.4404 25.295 26.6578 25.295 26.8803C25.2954 27.1784 25.414 27.4642 25.6248 27.6751C25.8356 27.8859 26.1214 28.0045 26.4196 28.0049ZM26.4196 26.756C26.4442 26.756 26.4682 26.7632 26.4887 26.7769C26.5092 26.7906 26.5251 26.81 26.5346 26.8327C26.544 26.8554 26.5465 26.8805 26.5417 26.9046C26.5369 26.9287 26.525 26.9509 26.5076 26.9683C26.4902 26.9857 26.4681 26.9975 26.4439 27.0023C26.4198 27.0071 26.3948 27.0047 26.372 26.9952C26.3493 26.9858 26.3299 26.9699 26.3162 26.9494C26.3026 26.9289 26.2953 26.9049 26.2953 26.8803C26.2955 26.8473 26.3086 26.8158 26.3319 26.7926C26.3552 26.7693 26.3867 26.7562 26.4196 26.756Z" fill="#404040"/>
<path d="M35.2681 7.60622C35.4905 7.60622 35.7079 7.54026 35.8929 7.41668C36.0778 7.2931 36.222 7.11746 36.3071 6.91196C36.3922 6.70646 36.4145 6.48033 36.3711 6.26217C36.3277 6.04401 36.2206 5.84362 36.0633 5.68633C35.906 5.52905 35.7056 5.42194 35.4875 5.37854C35.2693 5.33515 35.0432 5.35742 34.8377 5.44254C34.6322 5.52766 34.4565 5.67181 34.333 5.85676C34.2094 6.0417 34.1434 6.25914 34.1434 6.48158C34.1438 6.77975 34.2624 7.06561 34.4732 7.27645C34.684 7.48729 34.9699 7.60589 35.2681 7.60622ZM35.2681 6.35731C35.2927 6.35731 35.3167 6.36461 35.3372 6.37828C35.3576 6.39195 35.3736 6.41138 35.383 6.43411C35.3924 6.45684 35.3949 6.48185 35.39 6.50598C35.3852 6.53011 35.3734 6.55227 35.356 6.56966C35.3386 6.58705 35.3164 6.59889 35.2923 6.60367C35.2681 6.60846 35.2431 6.60598 35.2204 6.59655C35.1977 6.58712 35.1783 6.57117 35.1646 6.5507C35.151 6.53023 35.1437 6.50618 35.1437 6.48158C35.1439 6.44865 35.157 6.41712 35.1803 6.39385C35.2036 6.37058 35.2351 6.35745 35.2681 6.35731Z" fill="#404040"/>
<path d="M51.1195 6.74854C50.8971 6.74854 50.6796 6.8145 50.4947 6.93808C50.3097 7.06166 50.1656 7.23731 50.0805 7.44282C49.9954 7.64833 49.9731 7.87446 50.0165 8.09262C50.0599 8.31078 50.167 8.51117 50.3243 8.66845C50.4816 8.82573 50.682 8.93284 50.9002 8.97622C51.1183 9.0196 51.3445 8.99732 51.55 8.91218C51.7555 8.82704 51.9311 8.68288 52.0547 8.49792C52.1782 8.31296 52.2442 8.09551 52.2442 7.87307C52.2438 7.57491 52.1252 7.28906 51.9144 7.07823C51.7035 6.86741 51.4177 6.74884 51.1195 6.74854ZM51.1195 7.99744C51.0949 7.99744 51.0709 7.99015 51.0504 7.97648C51.03 7.96282 51.014 7.94339 51.0046 7.92067C50.9952 7.89794 50.9927 7.87293 50.9975 7.84881C51.0023 7.82468 51.0142 7.80252 51.0316 7.78513C51.049 7.76774 51.0711 7.75589 51.0953 7.75109C51.1194 7.74629 51.1444 7.74876 51.1671 7.75817C51.1898 7.76758 51.2093 7.78352 51.2229 7.80398C51.2366 7.82443 51.2439 7.84847 51.2439 7.87307C51.2437 7.90602 51.2306 7.93757 51.2073 7.96086C51.184 7.98416 51.1525 7.99731 51.1195 7.99744Z" fill="#404040"/>
<path d="M25.9592 21.6725C25.9592 21.45 25.8933 21.2326 25.7697 21.0476C25.6461 20.8627 25.4704 20.7185 25.2648 20.6334C25.0593 20.5483 24.8331 20.5261 24.615 20.5695C24.3968 20.613 24.1964 20.7201 24.0391 20.8775C23.8819 21.0348 23.7748 21.2353 23.7315 21.4535C23.6882 21.6717 23.7105 21.8978 23.7957 22.1033C23.881 22.3088 24.0252 22.4844 24.2102 22.6079C24.3953 22.7314 24.6128 22.7973 24.8352 22.7971C25.1333 22.7967 25.419 22.678 25.6297 22.4672C25.8404 22.2564 25.9589 21.9706 25.9592 21.6725ZM24.8352 21.7974C24.8106 21.7974 24.7866 21.7901 24.7662 21.7765C24.7457 21.7629 24.7297 21.7435 24.7203 21.7208C24.7109 21.6981 24.7083 21.6731 24.7131 21.649C24.7178 21.6249 24.7296 21.6027 24.747 21.5853C24.7643 21.5679 24.7864 21.556 24.8105 21.5511C24.8346 21.5462 24.8596 21.5486 24.8823 21.558C24.9051 21.5673 24.9245 21.5831 24.9383 21.6035C24.952 21.6239 24.9594 21.6479 24.9595 21.6725C24.9594 21.7055 24.9462 21.7371 24.9228 21.7604C24.8994 21.7837 24.8677 21.7968 24.8347 21.7969L24.8352 21.7974Z" fill="#404040"/>
<path d="M49.2676 22.3787C49.0452 22.3787 48.8277 22.4446 48.6428 22.5682C48.4578 22.6918 48.3137 22.8674 48.2286 23.0729C48.1434 23.2784 48.1212 23.5046 48.1646 23.7227C48.2079 23.9409 48.3151 24.1413 48.4723 24.2985C48.6296 24.4558 48.83 24.5629 49.0482 24.6063C49.2663 24.6497 49.4925 24.6275 49.698 24.5423C49.9035 24.4572 50.0791 24.3131 50.2027 24.1281C50.3263 23.9432 50.3922 23.7257 50.3922 23.5033C50.3919 23.2051 50.2733 22.9193 50.0625 22.7084C49.8516 22.4976 49.5658 22.379 49.2676 22.3787ZM49.2676 23.6276C49.243 23.6275 49.219 23.6202 49.1986 23.6066C49.1782 23.5929 49.1622 23.5735 49.1529 23.5508C49.1435 23.5281 49.141 23.5031 49.1458 23.479C49.1506 23.4549 49.1625 23.4328 49.1799 23.4154C49.1972 23.398 49.2194 23.3862 49.2435 23.3814C49.2676 23.3766 49.2926 23.3791 49.3153 23.3885C49.338 23.3979 49.3574 23.4138 49.371 23.4343C49.3847 23.4547 49.392 23.4787 49.392 23.5033C49.3918 23.5362 49.3786 23.5678 49.3553 23.591C49.3321 23.6143 49.3005 23.6274 49.2676 23.6276Z" fill="#404040"/>
</svg>
