<svg width="30" height="38" viewBox="0 0 30 38" fill="none" xmlns="http://www.w3.org/2000/svg">
<path fill-rule="evenodd" clip-rule="evenodd" d="M25.7111 18.7549C25.7111 19.4559 25.4853 20.1282 25.0835 20.6239C24.6817 21.1195 24.1367 21.398 23.5685 21.398L2.14262 21.398C1.57437 21.398 1.0294 21.1195 0.627582 20.6239C0.225771 20.1282 3.61436e-05 19.4559 3.61637e-05 18.7549C3.61838e-05 18.0539 0.225771 17.3817 0.627583 16.886C1.0294 16.3903 1.57437 16.1118 2.14262 16.1118L23.5685 16.1118C24.1367 16.1118 24.6817 16.3903 25.0835 16.886C25.4853 17.3817 25.7111 18.0539 25.7111 18.7549Z" fill="#AAAAAA"/>
<path fill-rule="evenodd" clip-rule="evenodd" d="M29.3705 16.8837C29.5701 17.1292 29.7284 17.4209 29.8364 17.742C29.9444 18.0631 30 18.4074 30 18.755C30 19.1027 29.9444 19.4469 29.8364 19.768C29.7284 20.0891 29.5701 20.3808 29.3705 20.6263L16.5151 36.4849C16.1127 36.9812 15.5671 37.26 14.9981 37.26C14.4291 37.26 13.8835 36.9812 13.4812 36.4849C13.0788 35.9886 12.8528 35.3154 12.8528 34.6135C12.8528 33.9117 13.0788 33.2385 13.4812 32.7422L24.824 18.755L13.4812 4.7678C13.2819 4.52205 13.1239 4.23031 13.0161 3.90923C12.9083 3.58815 12.8528 3.24402 12.8528 2.89649C12.8528 2.54895 12.9083 2.20482 13.0161 1.88374C13.1239 1.56266 13.2819 1.27092 13.4812 1.02518C13.6804 0.779438 13.9169 0.584503 14.1771 0.451508C14.4374 0.318512 14.7164 0.25006 14.9981 0.25006C15.2798 0.25006 15.5588 0.318512 15.8191 0.451508C16.0794 0.584503 16.3158 0.779438 16.5151 1.02518L29.3705 16.8837Z" fill="#AAAAAA"/>
</svg>
