<svg width="30" height="38" viewBox="0 0 30 38" fill="none" xmlns="http://www.w3.org/2000/svg">
<path fill-rule="evenodd" clip-rule="evenodd" d="M4.28894 18.7571C4.28894 18.0561 4.51468 17.3838 4.91649 16.8882C5.3183 16.3925 5.86328 16.114 6.43152 16.114L27.8574 16.114C28.4256 16.114 28.9706 16.3925 29.3724 16.8882C29.7742 17.3838 29.9999 18.0561 29.9999 18.7571C29.9999 19.4581 29.7742 20.1304 29.3724 20.6261C28.9706 21.1218 28.4256 21.4003 27.8574 21.4003L6.43152 21.4003C5.86328 21.4003 5.3183 21.1218 4.91649 20.6261C4.51468 20.1304 4.28894 19.4581 4.28894 18.7571Z" fill="#AAAAAA"/>
<path fill-rule="evenodd" clip-rule="evenodd" d="M0.629463 20.6284C0.429931 20.3828 0.271624 20.0912 0.163611 19.7701C0.0555967 19.4489 -6.43387e-07 19.1047 -6.55705e-07 18.757C-6.68024e-07 18.4094 0.0555967 18.0652 0.163611 17.744C0.271624 17.4229 0.429931 17.1313 0.629462 16.8857L13.485 1.02725C13.8873 0.530952 14.4329 0.252135 15.0019 0.252135C15.5709 0.252135 16.1165 0.530952 16.5189 1.02725C16.9212 1.52355 17.1472 2.19668 17.1472 2.89855C17.1472 3.60043 16.9212 4.27355 16.5189 4.76986L5.17602 18.757L16.5189 32.7442C16.7181 32.99 16.8761 33.2817 16.9839 33.6028C17.0917 33.9239 17.1472 34.268 17.1472 34.6155C17.1472 34.9631 17.0917 35.3072 16.9839 35.6283C16.8761 35.9494 16.7181 36.2411 16.5189 36.4868C16.3197 36.7326 16.0832 36.9275 15.8229 37.0605C15.5626 37.1935 15.2836 37.262 15.0019 37.262C14.7202 37.262 14.4412 37.1935 14.1809 37.0605C13.9207 36.9275 13.6842 36.7326 13.485 36.4868L0.629463 20.6284Z" fill="#AAAAAA"/>
</svg>
