<svg width="41" height="50" viewBox="0 0 41 50" fill="none" xmlns="http://www.w3.org/2000/svg">
<path d="M14.4487 33.2072V34.9872C14.4487 35.7325 14.7244 36.4147 15.1789 36.9372V43.3006C15.1789 44.7731 16.3769 45.971 17.8494 45.971H22.5269C23.9993 45.971 25.1973 44.7731 25.1973 43.3006V36.9372C25.6518 36.4147 25.9275 35.7326 25.9275 34.9873V33.2074C30.6626 30.9865 33.6858 26.2621 33.6858 20.9881C33.6858 13.5456 27.6308 7.49063 20.1882 7.49063C12.7456 7.49063 6.69059 13.5456 6.69059 20.9881C6.69047 26.2619 9.71364 30.9864 14.4487 33.2072ZM23.1886 43.3005C23.1886 43.6592 22.8856 43.9621 22.5269 43.9621H17.8494C17.4907 43.9621 17.1876 43.6592 17.1876 43.3005V41.9661H20.5137C21.0684 41.9661 21.5181 41.5165 21.5181 40.9617C21.5181 40.407 21.0684 39.9574 20.5137 39.9574H17.1876V37.9522C17.2653 37.9583 17.3438 37.9615 17.423 37.9615H22.9533C23.0325 37.9615 23.111 37.9583 23.1886 37.9522V43.3005ZM20.188 9.49926C26.5231 9.49926 31.677 14.6532 31.677 20.988C31.677 25.6714 28.8763 29.8457 24.542 31.6224C24.1649 31.777 23.9186 32.1441 23.9186 32.5518V34.9872C23.9186 35.5196 23.4855 35.9526 22.9532 35.9526H17.4229C16.8905 35.9526 16.4573 35.5195 16.4573 34.9872V32.5517C16.4573 32.1441 16.2111 31.777 15.834 31.6223C11.4998 29.8457 8.69922 25.6714 8.69922 20.988C8.69922 14.653 13.8531 9.49926 20.188 9.49926ZM19.1833 3.78928V1.00437C19.1833 0.449625 19.633 0 20.1877 0C20.7425 0 21.1921 0.449625 21.1921 1.00437V3.78928C21.1921 4.34403 20.7425 4.79366 20.1877 4.79366C19.633 4.79366 19.1833 4.34403 19.1833 3.78928ZM19.1837 13.0681C19.1837 12.5134 19.6333 12.0638 20.188 12.0638C25.3896 12.0638 29.6215 16.2955 29.6215 21.4971C29.6215 22.0518 29.1718 22.5015 28.6171 22.5015C28.0623 22.5015 27.6127 22.0518 27.6127 21.4971C27.6127 17.4031 24.282 14.0725 20.188 14.0725C19.6334 14.0725 19.1837 13.6228 19.1837 13.0681ZM34.4629 5.91264C34.8551 6.30491 34.8551 6.94079 34.4629 7.33305L32.6099 9.18601C32.4137 9.38209 32.1566 9.48018 31.8997 9.48018C31.6426 9.48018 31.3857 9.3822 31.1895 9.18601C30.7973 8.79375 30.7973 8.15787 31.1896 7.7656L33.0426 5.91264C33.4349 5.52038 34.0707 5.52049 34.4629 5.91264ZM40.3759 20.1877C40.3759 20.7425 39.9262 21.1921 39.3715 21.1921H37.1537C36.599 21.1921 36.1493 20.7425 36.1493 20.1877C36.1493 19.633 36.599 19.1833 37.1537 19.1833H39.3715C39.9261 19.1833 40.3759 19.6331 40.3759 20.1877ZM33.7189 45.9228C33.7189 47.3094 32.2685 48.3392 29.285 49.0711C26.843 49.6701 23.6125 50 20.1884 50C16.559 50 13.0687 49.6162 10.6123 48.9471C7.95096 48.222 6.65733 47.2328 6.65733 45.9227C6.65733 44.379 8.44858 43.2743 12.1333 42.5451C12.6769 42.4373 13.2057 42.7912 13.3135 43.3354C13.4212 43.8796 13.0674 44.408 12.5232 44.5157C9.95235 45.0244 8.95154 45.6512 8.7077 45.9196C8.86327 46.0872 9.41713 46.5396 11.1403 47.009C13.4318 47.6332 16.7296 47.9913 20.1883 47.9913C23.2079 47.9913 26.099 47.7213 28.3293 47.2309C30.7694 46.6945 31.4873 46.1143 31.6683 45.9194C31.4241 45.6509 30.4233 45.0243 27.8526 44.5157C27.3085 44.408 26.9546 43.8796 27.0623 43.3354C27.1701 42.7914 27.6983 42.4375 28.2426 42.5451C31.9276 43.2743 33.7189 44.3791 33.7189 45.9228ZM7.76605 9.18635L5.91298 7.33316C5.52071 6.9409 5.52071 6.30502 5.91298 5.91275C6.30524 5.52049 6.94112 5.52049 7.33338 5.91275L9.18646 7.76582C9.57872 8.15809 9.57872 8.79397 9.18646 9.18623C8.99038 9.38242 8.73326 9.4804 8.47625 9.4804C8.21924 9.4804 7.96224 9.38253 7.76605 9.18635ZM4.22686 20.1877C4.22686 20.7425 3.77723 21.1921 3.22248 21.1921H1.00437C0.449625 21.1921 0 20.7425 0 20.1877C0 19.633 0.449625 19.1833 1.00437 19.1833H3.22237C3.77723 19.1833 4.22686 19.6331 4.22686 20.1877Z" fill="#404040"/>
</svg>
