<svg width="104" height="50" viewBox="0 0 104 50" fill="none" xmlns="http://www.w3.org/2000/svg">
<path d="M16.3889 20.8333L22.2223 17.8472C23.0556 19.5833 24.5139 21.0417 27.1528 21.0417C29.8611 21.0417 31.5278 19.6528 31.5278 17.2917C31.5278 14.9306 29.8611 13.5417 26.875 13.5417C25.2084 13.5417 23.9584 13.8195 22.9861 14.1667C22.6389 14.3056 22.2917 14.0972 22.5695 13.75L28.125 5.97223H18.8195V0H38.4723C38.6806 0 38.75 0.138889 38.6111 0.347222L31.9445 9.23612C35.4167 9.93056 38.6806 12.4306 38.6806 17.5695C38.6806 23.1945 34.375 27.0139 27.5695 27.0139C22.0139 27.0833 18.125 24.3056 16.3889 20.8333Z" fill="#1476C6"/>
<path d="M62.7779 17.1528C62.7779 22.7778 58.0557 27.0139 51.6668 27.0139C45.4168 27.0139 40.6946 22.7083 40.6946 17.2917C40.6946 14.4445 41.5974 12.1528 43.1946 9.93056L50.2085 0H57.5696L51.8751 8.05556C58.6807 7.5 62.7779 12.2222 62.7779 17.1528ZM55.6946 17.1528C55.6946 15 54.2363 13.0556 51.6668 13.0556C49.1668 13.0556 47.639 14.9306 47.639 17.1528C47.639 19.2361 49.1668 21.25 51.6668 21.25C54.1668 21.25 55.6946 19.3056 55.6946 17.1528Z" fill="#1476C6"/>
<path d="M64.0973 21.3195L69.7917 18.125C70.4862 19.375 71.9445 20.9722 74.4445 20.9722C76.8056 20.9722 78.4029 19.9306 78.4029 17.7083C78.4029 15.2083 76.7362 14.3056 73.6806 14.3056C70.8334 14.3056 68.4723 15.4167 67.1528 16.25C66.7362 16.5278 66.5973 16.3889 66.5973 16.0417V0H83.3334V5.97223H72.4306V9.30556C72.9167 9.09723 73.889 8.88889 75.4167 8.88889C82.2917 8.88889 85.6945 12.2917 85.6945 17.6389C85.6945 23.1945 81.389 27.0139 74.6528 27.0139C69.3751 27.0833 65.764 24.6528 64.0973 21.3195Z" fill="#1476C6"/>
<path d="M14.2361 42.5695L6.52778 13.9583C6.52778 13.9583 9.23612 12.7778 13.5417 12.2222V9.58334C9.65278 9.58334 5.06945 10.0695 0 11.4583L9.65278 47.3611C9.65278 47.3611 26.5278 40.3472 43.6806 50C43.75 50 34.1667 38.4722 14.2361 42.5695Z" fill="#1476C6"/>
<path d="M90 9.58334V12.2917C94.2361 12.8472 96.875 13.9583 96.875 13.9583L89.1666 42.5695C69.3055 38.4722 59.7222 50 59.7222 50C76.875 40.3472 93.75 47.3611 93.75 47.3611L103.472 11.4583C98.4027 10.1389 93.9583 9.58334 90 9.58334Z" fill="#1476C6"/>
<path d="M19.5881 36.6748L18.0661 34.2395V36.5987H17.1528V32.6413H17.99L19.512 35.1527L19.4359 32.7174H20.4252V36.6748H19.5881Z" fill="#1476C6"/>
<path d="M23.7739 36.6748L23.5455 36.142H22.1757L21.9474 36.6748H20.882L22.4801 32.7174H23.2411L24.8393 36.6748H23.7739ZM23.0889 32.413L22.8606 32.1086L22.6323 32.413H21.7952L22.6323 31.4998H23.2411L24.0783 32.413H23.0889ZM22.8606 34.0112L22.4801 35.3049H23.3172L22.8606 34.0112Z" fill="#1476C6"/>
<path d="M27.7311 36.6748L26.2091 34.2395V36.5987H25.2197V32.6413H26.0569L27.5789 35.1527L27.5028 32.7174H28.5682V36.6748H27.7311Z" fill="#1476C6"/>
<path d="M33.2866 34.6961C33.2866 35.3049 33.0583 35.8376 32.6778 36.2181C32.2973 36.5986 31.7645 36.827 31.1557 36.827C30.5469 36.827 30.0903 36.5986 29.7098 36.2181C29.3293 35.8376 29.101 35.3049 29.101 34.7722C29.101 34.1634 29.3293 33.7067 29.7098 33.3262C30.0903 32.9457 30.623 32.7935 31.2318 32.7935C31.6884 32.7935 32.0689 32.9457 32.4495 33.174C32.83 33.4023 33.0583 33.7829 33.2105 34.1634H32.0689C31.8406 33.859 31.6123 33.6306 31.2318 33.6306C30.9274 33.6306 30.623 33.7067 30.4708 33.9351C30.2425 34.1634 30.1664 34.3917 30.1664 34.7722C30.1664 35.0766 30.2425 35.381 30.4708 35.6093C30.6991 35.8376 30.9274 35.9898 31.2318 35.9898C31.4601 35.9898 31.6884 35.9137 31.8406 35.8376C31.9928 35.7615 32.1451 35.5332 32.2212 35.381H31.0796V34.5439H33.4388V34.62V34.6961H33.2866Z" fill="#1476C6"/>
<path d="M36.9394 33.6307V36.6748H35.9501V33.6307H35.1891V32.7174H37.7005V33.6307H36.9394Z" fill="#1476C6"/>
<path d="M40.6685 36.6748L40.4402 36.142H39.0704L38.842 36.6748H37.7766L39.3748 32.7174H40.1358L41.7339 36.6748H40.6685ZM40.0597 32.413L39.8314 32.1086L39.6031 32.413H38.7659L39.6031 31.4998H40.2119L41.049 32.413H40.0597ZM40.6685 31.652L39.3748 31.0432L39.6792 30.4344L40.9729 31.1193L40.6685 31.652ZM39.8314 34.0112L39.3748 35.381H40.2119L39.8314 34.0112Z" fill="#1476C6"/>
<path d="M45.3869 36.6748V33.7068L44.5498 36.6748H43.8649L43.0277 33.7068V36.6748H42.1145V32.7174H43.4082L44.1693 35.3049L44.9303 32.7174H46.224V36.6748H45.3869Z" fill="#1476C6"/>
<path d="M50.1813 33.6307V36.6748H49.1919V33.6307H48.4309V32.7174H51.0184V33.6307H50.1813Z" fill="#1476C6"/>
<path d="M53.2254 36.6748L52.3122 35.381V36.6748H51.3229V32.7174H52.5405C52.6927 32.7174 52.7688 32.7174 52.8449 32.7174C52.9971 32.7174 53.0732 32.7174 53.1493 32.7174C53.3776 32.7935 53.6059 32.8696 53.7582 32.9457C54.0626 33.1741 54.2148 33.5546 54.2148 34.0112C54.2148 34.3156 54.1387 34.62 53.9865 34.8483C53.8343 35.0766 53.5298 35.2288 53.2254 35.3049L54.2909 36.6748H53.2254ZM53.1493 33.7829C53.0732 33.7068 52.921 33.6307 52.6927 33.6307H52.3122V34.7722H52.6927C53.1493 34.7722 53.3776 34.62 53.3776 34.2395C53.3776 34.0112 53.3015 33.859 53.1493 33.7829Z" fill="#1476C6"/>
<path d="M54.8236 36.6748V32.7174H55.8129V36.6748H54.8236Z" fill="#1476C6"/>
<path d="M59.6942 33.6307V36.6748H58.7049V33.6307H57.9438V32.7174H60.5313V33.6307H59.6942Z" fill="#1476C6"/>
<path d="M63.1949 36.6748V35.0766H61.9012V36.6748H60.9119V32.7174H61.9012V34.1634H63.1949V32.7174H64.1843V36.6748H63.1949Z" fill="#1476C6"/>
<path d="M67.9132 33.4024V35.0766C67.9132 35.381 67.9132 35.5332 67.8371 35.7615C67.761 35.9898 67.6849 36.1421 67.5327 36.2943C67.2283 36.5987 66.8478 36.7509 66.3912 36.7509C66.1629 36.7509 65.9346 36.7509 65.7824 36.6748C65.5541 36.5987 65.4019 36.5226 65.2497 36.3704C65.0974 36.2182 64.9452 35.9898 64.9452 35.8376C64.9452 35.7615 64.8691 35.6093 64.8691 35.5332C64.8691 35.4571 64.8691 35.3049 64.8691 35.1527V32.7935H65.8585V35.1527C65.8585 35.2288 65.8585 35.381 65.8585 35.4571C65.8585 35.5332 65.8585 35.6093 65.9346 35.6854C66.0107 35.8376 66.1629 35.9137 66.3912 35.9137C66.6195 35.9137 66.7717 35.8376 66.8478 35.6854C66.8478 35.6093 66.9239 35.5332 66.9239 35.4571C66.9239 35.381 66.9239 35.3049 66.9239 35.1527V32.7935H67.9132V33.0219C67.9893 32.9457 67.9893 32.8696 67.9893 32.7174H67.761V32.1086H68.3699V32.7174C68.3699 32.9457 68.2938 33.1741 68.1416 33.2502C68.0654 33.3263 67.9893 33.4024 67.9132 33.4024ZM66.1629 32.5652L65.9346 32.0325L67.2283 31.3476L67.5327 31.9564L66.1629 32.5652Z" fill="#1476C6"/>
<path d="M72.4794 35.2288C72.3272 35.6854 72.0989 36.0659 71.7184 36.3704C71.3379 36.6748 70.9574 36.827 70.4246 36.827C69.8158 36.827 69.3592 36.5987 68.9787 36.2182C68.5982 35.8376 68.3699 35.3049 68.3699 34.7722C68.3699 34.1634 68.5982 33.7068 68.9787 33.3263C69.3592 32.9457 69.8919 32.7174 70.4246 32.7174C71.1857 32.7174 71.7184 33.0218 72.175 33.6307C72.3272 33.859 72.4033 34.0873 72.4794 34.2395H71.414C71.2618 33.7829 70.9574 33.5546 70.4246 33.5546C70.1202 33.5546 69.8919 33.7068 69.6636 33.9351C69.4353 34.1634 69.3592 34.3917 69.3592 34.7722C69.3592 35.0766 69.4353 35.381 69.6636 35.6093C69.8919 35.8376 70.1202 35.9898 70.4246 35.9898C70.8813 35.9898 71.1857 35.7615 71.3379 35.3049H72.4794V35.2288Z" fill="#1476C6"/>
<path d="M76.7412 36.6748H75.7519L74.4581 32.7174H75.5236L76.2846 35.4571L77.1217 32.7174H78.1871L76.7412 36.6748Z" fill="#1476C6"/>
<path d="M78.5676 36.6748V32.7174H79.557V36.6748H78.5676Z" fill="#1476C6"/>
<path d="M81.6118 32.413L81.3835 32.1086L81.1552 32.413H80.318L81.1552 31.4998H81.764L82.6011 32.413H81.6118ZM80.2419 36.6748V32.7174H82.4489V33.6307H81.2313V34.2395H82.4489V35.1527H81.2313V35.8376H82.4489V36.7509H80.2419V36.6748ZM80.9269 37.9685V37.1314H81.764V37.9685H80.9269Z" fill="#1476C6"/>
<path d="M84.5797 33.6307V36.6748H83.5904V33.6307H82.8293V32.7174H85.4168V33.6307H84.5797Z" fill="#1476C6"/>
</svg>
